<svg width="30" height="30" viewBox="0 0 30 30" fill="none" xmlns="http://www.w3.org/2000/svg">
<path d="M14.9975 3.99689C13.8084 3.99689 12.646 4.34882 11.6573 5.00818C10.6686 5.66755 9.89796 6.60473 9.44291 7.70121C8.98786 8.79769 8.8688 10.0042 9.10079 11.1682C9.33277 12.3323 9.90537 13.4015 10.7462 14.2407C11.587 15.0799 12.6583 15.6514 13.8245 15.8829C14.9908 16.1145 16.1997 15.9957 17.2982 15.5415C18.3968 15.0873 19.3358 14.3182 19.9964 13.3314C20.6571 12.3446 21.0097 11.1844 21.0097 9.99757C21.0068 8.40696 20.3725 6.88231 19.2456 5.75758C18.1187 4.63284 16.5911 3.99972 14.9975 3.99689ZM14.9975 13.9944C14.2054 13.9944 13.4312 13.76 12.7727 13.3209C12.1141 12.8817 11.6008 12.2574 11.2977 11.5271C10.9946 10.7968 10.9153 9.99313 11.0699 9.21781C11.2244 8.4425 11.6058 7.73032 12.1658 7.17135C12.7259 6.61237 13.4394 6.23171 14.2162 6.07748C14.993 5.92326 15.7982 6.00242 16.5299 6.30493C17.2617 6.60745 17.8871 7.11974 18.3271 7.77702C18.7672 8.4343 19.002 9.20706 19.002 9.99757C19.002 11.0586 18.5805 12.0763 17.8298 12.8276C17.0791 13.5788 16.0605 14.0023 14.9975 14.0052V13.9944Z" fill="#ABABAB"/>
<path d="M14.9975 0C11.9907 0.00659589 9.05507 0.913098 6.5699 2.60235C4.08473 4.2916 2.16429 6.68595 1.05678 9.47595C-0.0507291 12.266 -0.294398 15.3234 0.357265 18.253C1.00893 21.1827 2.52597 23.85 4.71232 25.9101C4.79278 26.0193 4.89516 26.1105 5.01293 26.178C7.77097 28.6533 11.3533 30.0157 15.0624 29.9999C18.7715 29.984 22.342 28.5911 25.0787 26.0922L25.2075 25.9851C27.4161 23.9343 28.9553 21.2677 29.6249 18.3321C30.2946 15.3964 30.0638 12.3276 28.9624 9.52464C27.8611 6.7217 25.9403 4.31436 23.4497 2.61569C20.9591 0.917016 18.014 0.00561066 14.9975 0ZM6.69849 25.0207C7.38875 23.395 8.54335 22.0081 10.0183 21.0331C11.4932 20.0581 13.2231 19.5382 14.9921 19.5382C16.7612 19.5382 18.4911 20.0581 19.966 21.0331C21.4409 22.0081 22.5955 23.395 23.2857 25.0207C20.9536 26.9487 18.0204 28.0038 14.9921 28.0038C11.9639 28.0038 9.0306 26.9487 6.69849 25.0207ZM24.8103 23.5741C23.8894 21.7681 22.4858 20.2516 20.7549 19.1923C19.024 18.1331 17.0332 17.5725 15.0029 17.5725C12.9725 17.5725 10.9817 18.1331 9.25083 19.1923C7.51992 20.2516 6.11635 21.7681 5.19544 23.5741C3.54998 21.6942 2.48168 19.3812 2.11823 16.9114C1.75478 14.4417 2.11155 11.9198 3.14591 9.64701C4.18026 7.37426 5.84844 5.44686 7.95107 4.09517C10.0537 2.74348 12.5018 2.02467 15.0029 2.02467C17.5039 2.02467 19.952 2.74348 22.0546 4.09517C24.1573 5.44686 25.8254 7.37426 26.8598 9.64701C27.8942 11.9198 28.2509 14.4417 27.8875 16.9114C27.524 19.3812 26.4557 21.6942 24.8103 23.5741Z" fill="#ABABAB"/>
</svg>
